<?xml version="1.0" standalone="no"?>
<!DOCTYPE svg PUBLIC "-//W3C//DTD SVG 1.1//EN" "http://www.w3.org/Graphics/SVG/1.1/DTD/svg11.dtd" >
<svg>
<metadata>
Created by FontForge 20090914 at Fri Feb 26 10:12:36 2021
 By www-data
Copyright (c) 2011 by Thomas E. Harvey. All rights reserved.
</metadata>
<defs>
<font id="AAHigherup" horiz-adv-x="260" >
  <font-face 
    font-family="AA Higherup"
    font-weight="400"
    font-stretch="normal"
    units-per-em="1000"
    panose-1="2 0 0 0 0 0 0 0 0 0"
    ascent="750"
    descent="-250"
    x-height="801"
    cap-height="801"
    bbox="0 -140 617 946"
    underline-thickness="50"
    underline-position="-50"
    unicode-range="U+0020-U+2122"
  />
<missing-glyph horiz-adv-x="209" 
 />
    <glyph glyph-name=".notdef" horiz-adv-x="209" 
 />
    <glyph glyph-name="space" unicode=" " horiz-adv-x="209" 
 />
    <glyph glyph-name="space" unicode="&#xa0;" horiz-adv-x="209" 
 />
    <glyph glyph-name="exclam" unicode="!" horiz-adv-x="102" 
d="M14 74h74v-74h-74v74zM14 801h74l-8 -617h-58z" />
    <glyph glyph-name="quotedbl" unicode="&#x22;" horiz-adv-x="218" 
d="M17 801h74l-15 -184h-41zM124 801h77l-18 -184h-41z" />
    <glyph glyph-name="numbersign" unicode="#" horiz-adv-x="396" 
d="M93 559h-56v74h64l11 92h76l-11 -92h74l11 92h76l-11 -92h60v-74h-69l-35 -301h53v-74h-61l-13 -110h-74l13 110h-76l-13 -110h-75l13 110h-38v74h46zM243 559h-75l-35 -301h76z" />
    <glyph glyph-name="dollar" unicode="$" horiz-adv-x="177" 
d="M64 799l49 0.00195312v-37c12 0 23.333 -4 34 -12s16 -16.333 16 -25v-45h-50v45h-51l2 -45c0 -10.667 2.33301 -21 7 -31c2.66699 -6 7.33398 -13.333 14.001 -22l61 -68c6.66699 -8.66699 11.167 -19.834 13.5 -33.501s3.5 -32.5 3.5 -56.5v-65
c0 -8.66699 -5.33301 -17 -16 -25s-22 -12 -34 -12v-43h-49v43c-12.667 0 -24.334 4 -35.001 12s-16 16.333 -16 25v53h51l-2 -53h51v81c0 18.667 -0.833008 31.667 -2.5 39s-6.16699 15.666 -13.5 24.999l-63 68c-14 16.667 -21 37.667 -21 63v45
c0 8 5.16699 16.167 15.5 24.5s21.5 12.5 33.5 12.5z" />
    <glyph glyph-name="percent" unicode="%" horiz-adv-x="629" 
d="M88 441h76v284h-76v-284zM164 801c17.333 0 34.167 -8.5 50.5 -25.5s24.5 -33.833 24.5 -50.5v-284c0 -17.333 -8 -34 -24 -50s-33 -24 -51 -24h-76c-17.333 0 -34 8.33301 -50 25s-24 33 -24 49v284c0 17.333 8 34 24 50s32.667 24.667 50 26h76zM430.001 801h76
l-301 -801h-74zM463.001 74h76v293h-76v-293zM539.001 441c18 0 35 -8.33398 51 -25.001s24 -33 24 -49v-293c0 -17.333 -8 -34 -24 -50s-33 -24 -51 -24h-76c-17.333 0 -34 8.33301 -50 25s-24 33 -24 49v283c0 18.667 8.33301 37.334 25 56.001s33 28 49 28h76z" />
    <glyph glyph-name="ampersand" unicode="&#x26;" horiz-adv-x="332" 
d="M124 725l110.002 -493l84 135v-125l-59 -92l8 -50c8.66699 -17.333 25.667 -26 51 -26v-74h-43c-22.667 0 -40.334 6 -53.001 18c-9.33301 8.66699 -19 23.667 -29 45c-6.66699 -20.667 -12.334 -34.667 -17.001 -42c-10 -14 -24 -21 -42 -21h-58
c-15.333 0 -29 8.16699 -41 24.5s-18 32.833 -18 49.5v293c0 33.333 6.33301 60 19 80c6.66699 10.667 25 31 55 61l-41 191c-2.66699 12.667 -4 24.667 -4 36c0 22.667 5.66699 39 17 49s28 15.667 50 17h54c38 0 65.5 -6.16699 82.5 -18.5s25.5 -31.5 25.5 -57.5v-75h-67
v75h-84zM111.002 406c-7.33301 -8 -12.5 -22.833 -15.5 -44.5s-4.5 -50.5 -4.5 -86.5v-209h26l50 92z" />
    <glyph glyph-name="quotesingle" unicode="'" horiz-adv-x="101" 
d="M13 801h74l-15 -184h-41z" />
    <glyph glyph-name="parenleft" unicode="(" horiz-adv-x="135" 
d="M20 801c0 20.667 7.16699 38.167 21.5 52.5s31.833 21.5 52.5 21.5h26v-74c-17.333 0 -26 -11 -26 -33v-735c0 -22 8.66699 -33 26 -33v-74h-26c-19.333 0 -36.5 6.33301 -51.5 19s-22.5 31 -22.5 55v801v0z" />
    <glyph glyph-name="parenright" unicode=")" horiz-adv-x="135" 
d="M114 0c0 -24 -8.33398 -43 -25.001 -57c-14 -11.333 -30.667 -17 -50 -17h-25v74c16.667 0 25 11 25 33v735c0 22 -8.33301 33 -25 33v74h25c20.667 0 38.334 -7.33301 53.001 -22s22 -32 22 -52v-801z" />
    <glyph glyph-name="asterisk" unicode="*" horiz-adv-x="317" 
d="M198 801v-90l82 35l28 -62l-90 -39l62 -77l-54 -45l-63 81l-60 -83l-63 47l61 77l-92 37l25 64l88 -35v90h76z" />
    <glyph glyph-name="plus" unicode="+" horiz-adv-x="241" 
d="M8 441h225v-74h-225v74zM82 291v225h76v-225h-76z" />
    <glyph glyph-name="comma" unicode="," horiz-adv-x="101" 
d="M13 184h74l-15 -184h-41z" />
    <glyph glyph-name="hyphen" unicode="-" horiz-adv-x="240" 
d="M20 441h199v-74h-199v74z" />
    <glyph glyph-name="period" unicode="." horiz-adv-x="116" 
d="M20 74h74v-74h-74v74z" />
    <glyph glyph-name="slash" unicode="/" horiz-adv-x="232" 
d="M229 801l-151 -801h-74l150 801h75z" />
    <glyph glyph-name="zero" unicode="0" horiz-adv-x="265" 
d="M94 74h76v651h-76v-651zM170 801c18 0 35 -8.33301 51 -25s24 -33.667 24 -51v-651c0 -17.333 -8 -34 -24 -50s-33 -24 -51 -24h-76c-17.333 -0 -34 8.33301 -50 25s-24 33 -24 49v651c0 17.333 8 34.333 24 51s32.667 25 50 25h76z" />
    <glyph glyph-name="one" unicode="1" horiz-adv-x="173" 
d="M152 0h-74v709h-76v41l92 51h58v-801z" />
    <glyph glyph-name="two" unicode="2" horiz-adv-x="258" 
d="M244 0l-225.002 0.00195312v150c0 23.333 3.66699 45.666 11 66.999s17.333 43.333 30 66l59 117c18 26.667 30.833 51.167 38.5 73.5s11.5 48.166 11.5 77.499v174h-76v-92h-74v92c0 21.333 7.33301 39.333 22 54s32 22 52 22h76c20.667 0 38.334 -7.33301 53.001 -22
s22 -32.667 22 -54v-225c0 -16 -3.33301 -32 -10 -48l-31 -59l-59 -118c-17.333 -26 -30.166 -50 -38.499 -72s-12.5 -45.333 -12.5 -70v-59h151v-74z" />
    <glyph glyph-name="three" unicode="3" horiz-adv-x="263" 
d="M18 725c0 21.333 7.33496 39.333 22.002 54s32 22 52 22h76c19.333 0 36.666 -8.33301 51.999 -25s23 -33.667 23 -51v-233c0 -35.333 -13.667 -57.333 -41 -66c14.667 -6 25.167 -12.667 31.5 -20s9.5 -20.333 9.5 -39v-293c0 -21.333 -7.33301 -39 -22 -53
s-32.334 -21 -53.001 -21h-76c-20.667 0 -38.167 7.16699 -52.5 21.5s-21.5 31.833 -21.5 52.5v117h74v-117h76v319h-109v74h109v258h-76v-92h-74v92z" />
    <glyph glyph-name="four" unicode="4" horiz-adv-x="273" 
d="M153 0v166h-150v76l150 559h75v-559h33v-76h-33v-166h-75zM153 566l-76 -324h76v324z" />
    <glyph glyph-name="five" unicode="5" horiz-adv-x="261" 
d="M245 725h-150.999v-250c14 9.33301 26.5 15.833 37.5 19.5s23.833 5.5 38.5 5.5c21.333 0 39.166 -8.66699 53.499 -26s21.5 -42 21.5 -74v-326c0 -24 -7 -42.333 -21 -55s-32 -19 -54 -19h-76c-20.667 0 -38.167 7.16699 -52.5 21.5s-21.5 31.833 -21.5 52.5v125h74
v-125h76v352h-76v-59h-74v434h225v-76z" />
    <glyph glyph-name="six" unicode="6" horiz-adv-x="265" 
d="M170 625l0.00195312 100.001h-76v-266c12.667 11.333 23.667 18 33 20s23.666 3 42.999 3s36.666 -5.83301 51.999 -17.5s23 -27.834 23 -48.501v-342c0 -21.333 -7.33301 -39 -22 -53s-32.334 -21 -53.001 -21h-76c-20.667 0 -38.167 7.16699 -52.5 21.5
s-21.5 31.833 -21.5 52.5v651c0 21.333 7.33301 39.333 22 54s32 22 52 22h76c20.667 0 38.334 -7.33301 53.001 -22s22 -32.667 22 -54v-100h-75zM94.002 74.001h76v334h-76v-334z" />
    <glyph glyph-name="seven" unicode="7" horiz-adv-x="240" 
d="M233 801v-75.999c-24.667 -101.333 -43 -182.333 -55 -243c-17.333 -88 -30.5 -170 -39.5 -246s-13.5 -154.667 -13.5 -236h-76c0 76 5.66699 156.667 17 242c8.66699 63.333 22.667 143.666 42 240.999l50 242h-150v76h225z" />
    <glyph glyph-name="eight" unicode="8" horiz-adv-x="264" 
d="M169 74v283h-76v-283h76zM169 441v284h-76v-284h76zM34 400c-10 14.667 -15.001 28.334 -15.001 41.001v284c0 17.333 8 34.333 24 51s32.667 25 50 25h76c18 0 35 -8.33301 51 -25s24 -33.667 24 -51v-284c0 -13.333 -5.33301 -27 -16 -41c10.667 -14 16 -28.333 16 -43
v-283c0 -17.333 -8 -34 -24 -50s-33 -24 -51 -24h-76c-17.333 0 -34 8 -50 24s-24 32.667 -24 50v283c0 7.33301 1.33301 14.666 4 21.999s6.33398 14.333 11.001 21z" />
    <glyph glyph-name="nine" unicode="9" horiz-adv-x="264" 
d="M93 176v-102h76v268c-11.333 -12 -22.333 -19.333 -33 -22s-25 -4 -43 -4c-18.667 0 -35.667 6.33301 -51 19s-23 28.667 -23 48v342c0 21.333 7.33301 39.333 22 54s32 22 52 22h76c20.667 0 38.334 -7.33301 53.001 -22s22 -32.667 22 -54v-651
c0 -21.333 -7.33301 -39 -22 -53s-32.334 -21 -53.001 -21h-76c-20.667 0 -38.167 7.16699 -52.5 21.5s-21.5 31.833 -21.5 52.5v102h74zM169 725h-76v-332h76v332z" />
    <glyph glyph-name="colon" unicode=":" horiz-adv-x="108" 
d="M16 518h74v-77h-74v77zM16 74h74v-74h-74v74z" />
    <glyph glyph-name="semicolon" unicode=";" horiz-adv-x="103" 
d="M14 518h74v-77h-74v77zM14 184h74l-15 -184h-41z" />
    <glyph glyph-name="less" unicode="&#x3c;" horiz-adv-x="164" 
d="M150 633v-82l-84 -143l84 -140v-84l-150 224z" />
    <glyph glyph-name="equal" unicode="=" horiz-adv-x="229" 
d="M20 518h199v-77h-199v77zM20 367h199v-76h-199v76z" />
    <glyph glyph-name="greater" unicode="&#x3e;" horiz-adv-x="170" 
d="M20 184v84l84 140l-84 143v82l150 -225z" />
    <glyph glyph-name="question" unicode="?" horiz-adv-x="214" 
d="M6 801c66 0 117.333 -23.001 154 -69.001c33.333 -41.333 50 -93.333 50 -156c0 -40.667 -7.5 -79.5 -22.5 -116.5s-36.5 -67.833 -64.5 -92.5v-183h-76v216c29.333 28.667 51.333 59.5 66 92.5s22 64.5 22 94.5c0 40.667 -11.5 73.834 -34.5 99.501
s-54.5 38.5 -94.5 38.5v76zM47 73.999h76v-74h-76v74z" />
    <glyph glyph-name="at" unicode="@" horiz-adv-x="460" 
d="M292 454c0 14.667 -4.83203 27.5 -14.499 38.5s-21.167 16.5 -34.5 16.5c-26 0 -47.667 -12.5 -65 -37.5s-26 -51.5 -26 -79.5c0 -17.333 4.66699 -31.333 14 -42s21.666 -16 36.999 -16c24 0 45.333 14 64 42c16.667 25.333 25 51.333 25 78zM311.001 505l12.002 37.998
h40c-7.33301 -27.333 -21.333 -77 -42 -149c-8 -27.333 -12 -43 -12 -47c0 -11.333 4.33301 -17 13 -17c20.667 0 40 13.333 58 40s27 56.334 27 89.001c0 46.667 -16.167 84.167 -48.5 112.5s-71.833 42.5 -118.5 42.5c-52.667 0 -96.334 -18.333 -131.001 -55
s-52 -82.334 -52 -137.001c0 -52.667 18 -97 54 -133s80.333 -54 133 -54c28 0 55 6 81 18s47.667 28.667 65 50h40c-19.333 -32.667 -45.666 -58.334 -78.999 -77.001s-69.333 -28 -108 -28c-64.667 0 -119 22 -163 66s-66 98 -66 162
c0 62.667 22.167 115.834 66.5 159.501s97.5 65.5 159.5 65.5c57.333 0 106 -17.667 146 -53s60 -80 60 -134c0 -50 -17 -92.333 -51 -127c-30 -30.667 -60.667 -46 -92 -46c-10.667 0 -19.834 3.16699 -27.501 9.5s-11.5 15.5 -11.5 27.5
c-10.667 -11.333 -22 -20.333 -34 -27s-25 -10 -39 -10c-25.333 0 -46.333 9.33301 -63 28s-25 41.334 -25 68.001c0 42.667 13 80.834 39 114.501s59.333 50.5 100 50.5c15.333 0 28.666 -3.5 39.999 -10.5s21 -19.167 29 -36.5z" />
    <glyph glyph-name="A" unicode="A" horiz-adv-x="265" 
d="M94 441h76v284h-76v-284zM170 801c18 0 35 -8.33301 51 -25s24 -33.667 24 -51v-725h-75v367h-76v-367h-74v725c0 17.333 8 34.333 24 51s32.667 25 50 25h76z" />
    <glyph glyph-name="B" unicode="B" horiz-adv-x="265" 
d="M94 441h76v284h-76v-284zM20 801h150c18 0 35 -8.33301 51 -25s24 -33.667 24 -51v-284c0 -7.33301 -3.33301 -15 -10 -23s-14.667 -14 -24 -18c10.667 -4 19 -9.33301 25 -16s9 -15.667 9 -27v-283c0 -18 -7.5 -34.833 -22.5 -50.5s-31.833 -23.5 -50.5 -23.5h-152v801z
M94 74h76v293h-76v-293z" />
    <glyph glyph-name="C" unicode="C" horiz-adv-x="263" 
d="M170 633v92h-76v-651h76v110h75v-110c0 -17.333 -8 -34 -24 -50s-33 -24 -51 -24h-76c-17.333 0 -34 8 -50 24s-24 32.667 -24 50v651c0 17.333 8 34.333 24 51s32.667 25 50 25h76c18 0 35 -8.33301 51 -25s24 -33.667 24 -51v-92h-75z" />
    <glyph glyph-name="D" unicode="D" horiz-adv-x="265" 
d="M94 74h76v651h-76v-651zM20 801h150c18 0 35 -8.33301 51 -25s24 -33.667 24 -51v-651c0 -49.333 -24.333 -74 -73 -74h-152v801z" />
    <glyph glyph-name="E" unicode="E" horiz-adv-x="226" 
d="M19 0v801h199v-76h-125v-284h110v-74h-110v-293h125v-74h-199z" />
    <glyph glyph-name="F" unicode="F" horiz-adv-x="220" 
d="M19 0v801h199v-76h-125v-284h110v-74h-110v-367h-74z" />
    <glyph glyph-name="G" unicode="G" horiz-adv-x="263" 
d="M169 633v92h-76v-651h76v367h-33v77h108v-444c0 -17.333 -8 -34 -24 -50s-33 -24 -51 -24h-76c-17.333 0 -34 8 -50 24s-24 32.667 -24 50v651c0 17.333 8 34.333 24 51s32.667 25 50 25h76c18 0 35 -8.33301 51 -25s24 -33.667 24 -51v-92h-75z" />
    <glyph glyph-name="H" unicode="H" horiz-adv-x="264" 
d="M93 801v-360h76v360h75v-801h-75v367h-76v-367h-74v801h74z" />
    <glyph glyph-name="I" unicode="I" horiz-adv-x="114" 
d="M93 801v-801h-74v801h74z" />
    <glyph glyph-name="J" unicode="J" horiz-adv-x="172" 
d="M153 802v-652c0 -50 -4.66699 -84.667 -14 -104c-14.667 -30.667 -46 -46 -94 -46h-42v74h32c19.333 0 32 7.33301 38 22c3.33301 8.66699 5 26 5 52v654h75z" />
    <glyph glyph-name="K" unicode="K" horiz-adv-x="262" 
d="M93 801l0.000976562 -360l76 360h75l-75 -360c21.333 0 39.166 -6.5 53.499 -19.5s21.5 -31.167 21.5 -54.5v-367h-75v367h-76v-367h-74v801h74z" />
    <glyph glyph-name="L" unicode="L" horiz-adv-x="205" 
d="M93 801v-727h110v-74h-184v801h74z" />
    <glyph glyph-name="M" unicode="M" horiz-adv-x="413" 
d="M19 725c0 24 7 42.667 21 56s31.667 20 53 20h76c12 0 21.333 -3.66699 28 -11c4 -4 8.33301 -11.333 13 -22c2.66699 4.66699 6 12 10 22c5.33301 7.33301 13.333 11 24 11h76c22 0 39.833 -6.5 53.5 -19.5s20.5 -31.833 20.5 -56.5v-725h-74v725h-76v-725h-75v725h-76
v-725h-74v725z" />
    <glyph glyph-name="N" unicode="N" horiz-adv-x="263" 
d="M95 801v-26c16 10.667 26.333 17 31 19c10.667 4.66699 25 7 43 7c22 0 40 -6.66699 54 -20s21 -32 21 -56v-725h-75v725h-74v-725h-76v801h76z" />
    <glyph glyph-name="O" unicode="O" horiz-adv-x="263" 
d="M93 74h76v651h-76v-651zM169 801c18 0 35 -8.33301 51 -25s24 -33.667 24 -51v-651c0 -17.333 -8 -34 -24 -50s-33 -24 -51 -24h-76c-17.333 0 -34 8 -50 24s-24 32.667 -24 50v651c0 17.333 8 34.333 24 51s32.667 25 50 25h76z" />
    <glyph glyph-name="P" unicode="P" horiz-adv-x="250" 
d="M93 441h76v284h-76v-284zM93 367v-367h-74v801h150c18 0 35 -8.33301 51 -25s24 -33.667 24 -51v-284c0 -49.333 -25 -74 -75 -74h-76z" />
    <glyph glyph-name="Q" unicode="Q" horiz-adv-x="275" 
d="M92 74h76l-50 43v82l50 -41v567h-76v-651zM168 801c18 0 35 -8.33301 51 -25s24 -33.667 24 -51v-633l17 -18v-82l-43 33c-4 -8 -11 -14.167 -21 -18.5s-19.333 -6.5 -28 -6.5h-76c-17.333 0 -34 8 -50 24s-24 32.667 -24 50v651c0 17.333 8 34.333 24 51
s32.667 25 50 25h76z" />
    <glyph glyph-name="R" unicode="R" horiz-adv-x="263" 
d="M93 441h76v284h-76v-284zM169 0v367h-76v-367h-74v801h150c18 0 35 -8.33301 51 -25s24 -33.667 24 -51v-284c0 -7.33301 -3.33301 -15 -10 -23s-14.667 -14 -24 -18c10.667 -4 19 -9.33301 25 -16s9 -15.667 9 -27v-357h-75z" />
    <glyph glyph-name="S" unicode="S" horiz-adv-x="258" 
d="M49 508c-12 19.333 -20.501 39.001 -25.501 59.001s-7.5 42 -7.5 66v90c0 17.333 8 34.666 24 51.999s32.667 26 50 26h76c18 0 35 -8.33301 51 -25s24 -33.667 24 -51v-92h-75v92h-76v-92c0 -21.333 4 -42.333 12 -63c5.33301 -14 13 -29 23 -45l92 -136
c12.667 -20 20.334 -52 23.001 -96c0.666992 -11.333 1 -39.333 1 -84v-135c0 -17.333 -8 -34 -24 -50s-33 -24 -51 -24h-76c-17.333 0 -34 8 -50 24s-24 32.667 -24 50v110h74v-110h76v135c0 50.667 -1.16699 85.167 -3.5 103.5s-9.5 36.5 -21.5 54.5l-92 141v0z" />
    <glyph glyph-name="T" unicode="T" horiz-adv-x="238" 
d="M231 801v-76h-75v-725h-76v725h-74v76h225z" />
    <glyph glyph-name="U" unicode="U" horiz-adv-x="261" 
d="M243 801v-727c0 -17.333 -8 -34 -24 -50s-33 -24 -51 -24h-76c-17.333 0 -34 8 -50 24s-24 32.667 -24 50v727h74v-727h76v727h75z" />
    <glyph glyph-name="V" unicode="V" horiz-adv-x="317" 
d="M82 801l76 -617l75 617h76l-113 -801h-77l-111 801h74z" />
    <glyph glyph-name="W" unicode="W" horiz-adv-x="475" 
d="M201 725h74l70 -475l43 551h74l-74 -801h-74l-76 500l-75 -500h-76l-74 801h74l45 -551z" />
    <glyph glyph-name="X" unicode="X" horiz-adv-x="331" 
d="M89 801l76 -319l75 319h76l-102 -395l102 -406h-76l-75 316l-76 -316h-74l107 408l-107 393h74z" />
    <glyph glyph-name="Y" unicode="Y" horiz-adv-x="315" 
d="M81 801l76 -319l75 319h76l-113 -436v-365h-77v365l-111 436h74z" />
    <glyph glyph-name="Z" unicode="Z" horiz-adv-x="221" 
d="M209 801v-76l-125 -651h125v-74h-199v74l125 651h-107v76h181z" />
    <glyph glyph-name="bracketleft" unicode="[" horiz-adv-x="145" 
d="M18 875h117v-74h-43v-801h43v-74h-117v949z" />
    <glyph glyph-name="backslash" unicode="\" horiz-adv-x="231" 
d="M228 0h-75l-150 801h74z" />
    <glyph glyph-name="bracketright" unicode="]" horiz-adv-x="146" 
d="M10 -74v74h41v801h-41v74h117v-949h-117z" />
    <glyph glyph-name="asciicircum" unicode="^" horiz-adv-x="245" 
d="M160 633l-39 92l-37 -92h-74l74 168h76l75 -168h-75z" />
    <glyph glyph-name="underscore" unicode="_" horiz-adv-x="436" 
d="M418 -76v-51h-400v51h400z" />
    <glyph glyph-name="grave" unicode="`" horiz-adv-x="179" 
d="M3 748l52 52l120 -140l-29 -29z" />
    <glyph glyph-name="A.001" unicode="a" horiz-adv-x="265" 
d="M94 441h76v284h-76v-284zM170 801c18 0 35 -8.33301 51 -25s24 -33.667 24 -51v-725h-75v367h-76v-367h-74v725c0 17.333 8 34.333 24 51s32.667 25 50 25h76z" />
    <glyph glyph-name="B.001" unicode="b" horiz-adv-x="265" 
d="M94 441h76v284h-76v-284zM20 801h150c18 0 35 -8.33301 51 -25s24 -33.667 24 -51v-284c0 -7.33301 -3.33301 -15 -10 -23s-14.667 -14 -24 -18c10.667 -4 19 -9.33301 25 -16s9 -15.667 9 -27v-283c0 -18 -7.5 -34.833 -22.5 -50.5s-31.833 -23.5 -50.5 -23.5h-152v801z
M94 74h76v293h-76v-293z" />
    <glyph glyph-name="C.001" unicode="c" horiz-adv-x="263" 
d="M170 633v92h-76v-651h76v110h75v-110c0 -17.333 -8 -34 -24 -50s-33 -24 -51 -24h-76c-17.333 0 -34 8 -50 24s-24 32.667 -24 50v651c0 17.333 8 34.333 24 51s32.667 25 50 25h76c18 0 35 -8.33301 51 -25s24 -33.667 24 -51v-92h-75z" />
    <glyph glyph-name="D.001" unicode="d" horiz-adv-x="265" 
d="M94 74h76v651h-76v-651zM20 801h150c18 0 35 -8.33301 51 -25s24 -33.667 24 -51v-651c0 -49.333 -24.333 -74 -73 -74h-152v801z" />
    <glyph glyph-name="E.001" unicode="e" horiz-adv-x="226" 
d="M19 0v801h199v-76h-125v-284h110v-74h-110v-293h125v-74h-199z" />
    <glyph glyph-name="F.001" unicode="f" horiz-adv-x="220" 
d="M19 0v801h199v-76h-125v-284h110v-74h-110v-367h-74z" />
    <glyph glyph-name="G.001" unicode="g" horiz-adv-x="263" 
d="M169 633v92h-76v-651h76v367h-33v77h108v-444c0 -17.333 -8 -34 -24 -50s-33 -24 -51 -24h-76c-17.333 0 -34 8 -50 24s-24 32.667 -24 50v651c0 17.333 8 34.333 24 51s32.667 25 50 25h76c18 0 35 -8.33301 51 -25s24 -33.667 24 -51v-92h-75z" />
    <glyph glyph-name="H.001" unicode="h" horiz-adv-x="264" 
d="M93 801v-360h76v360h75v-801h-75v367h-76v-367h-74v801h74z" />
    <glyph glyph-name="I.001" unicode="i" horiz-adv-x="114" 
d="M93 801v-801h-74v801h74z" />
    <glyph glyph-name="J.001" unicode="j" horiz-adv-x="172" 
d="M153 802v-652c0 -50 -4.66699 -84.667 -14 -104c-14.667 -30.667 -46 -46 -94 -46h-42v74h32c19.333 0 32 7.33301 38 22c3.33301 8.66699 5 26 5 52v654h75z" />
    <glyph glyph-name="K.001" unicode="k" horiz-adv-x="262" 
d="M93 801l0.000976562 -360l76 360h75l-75 -360c21.333 0 39.166 -6.5 53.499 -19.5s21.5 -31.167 21.5 -54.5v-367h-75v367h-76v-367h-74v801h74z" />
    <glyph glyph-name="L.001" unicode="l" horiz-adv-x="205" 
d="M93 801v-727h110v-74h-184v801h74z" />
    <glyph glyph-name="M.001" unicode="m" horiz-adv-x="413" 
d="M19 725c0 24 7 42.667 21 56s31.667 20 53 20h76c12 0 21.333 -3.66699 28 -11c4 -4 8.33301 -11.333 13 -22c2.66699 4.66699 6 12 10 22c5.33301 7.33301 13.333 11 24 11h76c22 0 39.833 -6.5 53.5 -19.5s20.5 -31.833 20.5 -56.5v-725h-74v725h-76v-725h-75v725h-76
v-725h-74v725z" />
    <glyph glyph-name="N.001" unicode="n" horiz-adv-x="263" 
d="M95 801v-26c16 10.667 26.333 17 31 19c10.667 4.66699 25 7 43 7c22 0 40 -6.66699 54 -20s21 -32 21 -56v-725h-75v725h-74v-725h-76v801h76z" />
    <glyph glyph-name="O.001" unicode="o" horiz-adv-x="263" 
d="M93 74h76v651h-76v-651zM169 801c18 0 35 -8.33301 51 -25s24 -33.667 24 -51v-651c0 -17.333 -8 -34 -24 -50s-33 -24 -51 -24h-76c-17.333 0 -34 8 -50 24s-24 32.667 -24 50v651c0 17.333 8 34.333 24 51s32.667 25 50 25h76z" />
    <glyph glyph-name="P.001" unicode="p" horiz-adv-x="250" 
d="M93 441h76v284h-76v-284zM93 367v-367h-74v801h150c18 0 35 -8.33301 51 -25s24 -33.667 24 -51v-284c0 -49.333 -25 -74 -75 -74h-76z" />
    <glyph glyph-name="Q.001" unicode="q" horiz-adv-x="275" 
d="M92 74h76l-50 43v82l50 -41v567h-76v-651zM168 801c18 0 35 -8.33301 51 -25s24 -33.667 24 -51v-633l17 -18v-82l-43 33c-4 -8 -11 -14.167 -21 -18.5s-19.333 -6.5 -28 -6.5h-76c-17.333 0 -34 8 -50 24s-24 32.667 -24 50v651c0 17.333 8 34.333 24 51
s32.667 25 50 25h76z" />
    <glyph glyph-name="R.001" unicode="r" horiz-adv-x="263" 
d="M93 441h76v284h-76v-284zM169 0v367h-76v-367h-74v801h150c18 0 35 -8.33301 51 -25s24 -33.667 24 -51v-284c0 -7.33301 -3.33301 -15 -10 -23s-14.667 -14 -24 -18c10.667 -4 19 -9.33301 25 -16s9 -15.667 9 -27v-357h-75z" />
    <glyph glyph-name="S.001" unicode="s" horiz-adv-x="258" 
d="M49 508c-12 19.333 -20.501 39.001 -25.501 59.001s-7.5 42 -7.5 66v90c0 17.333 8 34.666 24 51.999s32.667 26 50 26h76c18 0 35 -8.33301 51 -25s24 -33.667 24 -51v-92h-75v92h-76v-92c0 -21.333 4 -42.333 12 -63c5.33301 -14 13 -29 23 -45l92 -136
c12.667 -20 20.334 -52 23.001 -96c0.666992 -11.333 1 -39.333 1 -84v-135c0 -17.333 -8 -34 -24 -50s-33 -24 -51 -24h-76c-17.333 0 -34 8 -50 24s-24 32.667 -24 50v110h74v-110h76v135c0 50.667 -1.16699 85.167 -3.5 103.5s-9.5 36.5 -21.5 54.5l-92 141v0z" />
    <glyph glyph-name="T.001" unicode="t" horiz-adv-x="238" 
d="M231 801v-76h-75v-725h-76v725h-74v76h225z" />
    <glyph glyph-name="U.001" unicode="u" horiz-adv-x="261" 
d="M243 801v-727c0 -17.333 -8 -34 -24 -50s-33 -24 -51 -24h-76c-17.333 0 -34 8 -50 24s-24 32.667 -24 50v727h74v-727h76v727h75z" />
    <glyph glyph-name="V.001" unicode="v" horiz-adv-x="317" 
d="M82 801l76 -617l75 617h76l-113 -801h-77l-111 801h74z" />
    <glyph glyph-name="W.001" unicode="w" horiz-adv-x="475" 
d="M201 725h74l70 -475l43 551h74l-74 -801h-74l-76 500l-75 -500h-76l-74 801h74l45 -551z" />
    <glyph glyph-name="X.001" unicode="x" horiz-adv-x="331" 
d="M89 801l76 -319l75 319h76l-102 -395l102 -406h-76l-75 316l-76 -316h-74l107 408l-107 393h74z" />
    <glyph glyph-name="Y.001" unicode="y" horiz-adv-x="315" 
d="M81 801l76 -319l75 319h76l-113 -436v-365h-77v365l-111 436h74z" />
    <glyph glyph-name="Z.001" unicode="z" horiz-adv-x="221" 
d="M209 801v-76l-125 -651h125v-74h-199v74l125 651h-107v76h181z" />
    <glyph glyph-name="braceleft" unicode="{" horiz-adv-x="200" 
d="M71 355c0 17.333 -7.99902 34.332 -23.999 50.999c-14 14.667 -29 22.334 -45 23.001c16 1.33301 31.167 9.5 45.5 24.5s22.166 30.5 23.499 46.5v299c0 17.333 8 34.333 24 51s33 25 51 25h42v-74h-41v-301c-1.33301 -16 -9.16602 -31.5 -23.499 -46.5
s-29.5 -23.167 -45.5 -24.5c16 -0.666992 31.167 -8.5 45.5 -23.5s22.166 -30.167 23.499 -45.5v-360h40v-74h-43c-48.667 0 -73 24.667 -73 74v355z" />
    <glyph glyph-name="bar" unicode="|" horiz-adv-x="114" 
d="M18 -74v949h76v-949h-76z" />
    <glyph glyph-name="braceright" unicode="}" horiz-adv-x="201" 
d="M130 0c0 -49.333 -24.332 -73.999 -72.999 -73.999h-43v74h40v360c1.33301 15.333 9.16602 30.5 23.499 45.5s29.5 22.833 45.5 23.5c-16 1.33301 -31.167 9.5 -45.5 24.5s-22.166 30.5 -23.499 46.5v301h-41v74h42c18 0 35 -8.33301 51 -25s24 -33.667 24 -51v-299
c1.33301 -16 9.16602 -31.5 23.499 -46.5s29.5 -23.167 45.5 -24.5c-16 -0.666992 -31 -8.33398 -45 -23.001c-16 -16.667 -24 -33.667 -24 -51v-355z" />
    <glyph glyph-name="asciitilde" unicode="~" horiz-adv-x="422" 
d="M412 343l-16.001 6c-20 8.66699 -41 13 -63 13c-14.667 0 -31.667 -2 -51 -6l-160 -35c-23.333 -4.66699 -55.666 0.333008 -96.999 15c-3.33301 0.666992 -8 2 -14 4v80c27.333 -10 47.333 -16.667 60 -20c18 -4 37.667 -4 59 0l165 33c22 4.66699 43 5.66699 63 3
c17.333 -2.66699 35.333 -7 54 -13v-80z" />
    <glyph glyph-name="cent" unicode="&#xa2;" horiz-adv-x="242" 
d="M119 633l9.00098 92h74l-11 -100c30 -15.333 45 -37.333 45 -66v-34h-75v34h-76v-301h76v33h75v-33c0 -17.333 -8 -34 -24 -50s-33 -24 -51 -24h-21l-12 -110h-76l13 114c-14.667 5.33301 -27.334 15 -38.001 29s-16 27.667 -16 41v301c0 17.333 8 34 24 50
s32.667 24 50 24h34z" />
    <glyph glyph-name="sterling" unicode="&#xa3;" horiz-adv-x="309" 
d="M180 74l-16 84c-50.667 0 -76 -13.667 -76 -41v-43h92zM184 441l88 0.000976562v-74h-72l30 -135h67v-74h-50l9 -41c4 -19.333 6 -36 6 -50c0 -24 -7.5 -41.167 -22.5 -51.5s-40.167 -15.5 -75.5 -15.5h-76c-23.333 0 -41.5 6.83301 -54.5 20.5s-19.5 31.5 -19.5 53.5v43
c0 34.667 14.667 62 44 82c25.333 17.333 55 26 89 26l-30 142h-103v74h87l-54 258c-2.66699 12.667 -4 24.667 -4 36c0 22 5.83301 38.167 17.5 48.5s28.167 16.166 49.5 17.499h54c72 0 108 -25.333 108 -76v-75h-67v75h-84z" />
    <glyph glyph-name="brokenbar" unicode="&#xa6;" horiz-adv-x="108" 
d="M92 801v-361h-74v361h74zM92 361v-361h-74v361h74z" />
    <glyph glyph-name="copyright" unicode="&#xa9;" horiz-adv-x="440" 
d="M221 211c-57.333 0 -106.333 19.333 -147 58s-61 87.334 -61 146.001c0 57.333 20.333 105.666 61 144.999s89.667 59 147 59c56.667 0 105.167 -19.5 145.5 -58.5s60.5 -87.5 60.5 -145.5s-20.167 -106.5 -60.5 -145.5s-88.833 -58.5 -145.5 -58.5zM55 415
c0 -49.333 15.666 -90 46.999 -122s71 -48 119 -48c46.667 0 85.834 16.167 117.501 48.5s47.5 72.833 47.5 121.5c0 48 -16 88.333 -48 121s-71 49 -117 49c-47.333 0 -86.833 -16.167 -118.5 -48.5s-47.5 -72.833 -47.5 -121.5zM231.999 488v30h-23v-204h23v35h24v-35
c0 -6 -2.5 -11.5 -7.5 -16.5s-10.5 -7.5 -16.5 -7.5h-23c-6 0 -11.5 2.5 -16.5 7.5s-7.5 10.5 -7.5 16.5v204c0 5.33301 2.5 10.666 7.5 15.999s10.5 8 16.5 8h23c6 0 11.5 -2.66699 16.5 -8s7.5 -10.666 7.5 -15.999v-30h-24z" />
    <glyph glyph-name="guillemotleft" unicode="&#xab;" horiz-adv-x="290" 
d="M5 408l150 225v-82l-84 -143l84 -140v-84zM125 408l150 225v-82l-84 -143l84 -140v-84z" />
    <glyph glyph-name="uni00AD" unicode="&#xad;" horiz-adv-x="266" 
d="M18 441h229v-74h-229v74z" />
    <glyph glyph-name="registered" unicode="&#xae;" horiz-adv-x="439" 
d="M220 220c-56.667 0 -105.332 19.667 -145.999 59s-61 88 -61 146c0 57.333 20.167 105.5 60.5 144.5s89.166 58.5 146.499 58.5c56.667 0 105.334 -19.333 146.001 -58s61 -87 61 -145s-20.333 -106.667 -61 -146s-89.334 -59 -146.001 -59zM54.002 425
c0 -49.333 15.833 -90.166 47.5 -122.499s71.167 -48.5 118.5 -48.5c46.667 0 85.834 16.167 117.501 48.5s47.5 73.166 47.5 122.499c0 48 -15.833 88.167 -47.5 120.5s-70.834 48.5 -117.501 48.5s-86 -16 -118 -48s-48 -72.333 -48 -121zM212.002 436h24v84h-24v-84z
M236.002 306v108h-24v-108h-20v236h44c4.66699 0 9.5 -2.66699 14.5 -8s7.5 -10 7.5 -14v-84c0 -2 -1 -4.16699 -3 -6.5s-4.66699 -4.5 -8 -6.5c4 -0.666992 6.83301 -2 8.5 -4s2.5 -4.33301 2.5 -7v-106h-22z" />
    <glyph glyph-name="degree" unicode="&#xb0;" horiz-adv-x="239" 
d="M13 410c0 14.667 2.83301 28.5 8.5 41.5s13.334 24.333 23.001 34s21 17.334 34 23.001s26.833 8.5 41.5 8.5s28.5 -2.83301 41.5 -8.5s24.333 -13.334 34 -23.001s17.334 -21 23.001 -34s8.5 -26.833 8.5 -41.5s-2.83301 -28.5 -8.5 -41.5s-13.334 -24.333 -23.001 -34
s-21 -17.334 -34 -23.001s-26.833 -8.5 -41.5 -8.5s-28.5 2.83301 -41.5 8.5s-24.333 13.334 -34 23.001s-17.334 21 -23.001 34s-8.5 26.833 -8.5 41.5zM78 410c0 -6 1.16699 -11.5 3.5 -16.5s5.33301 -9.33301 9 -13s8 -6.66699 13 -9s10.5 -3.5 16.5 -3.5
s11.5 1.16699 16.5 3.5s9.33301 5.33301 13 9s6.66699 8 9 13s3.5 10.5 3.5 16.5s-1.16699 11.5 -3.5 16.5s-5.33301 9.33301 -9 13s-8 6.66699 -13 9s-10.5 3.5 -16.5 3.5s-11.5 -1.16699 -16.5 -3.5s-9.33301 -5.33301 -13 -9s-6.66699 -8 -9 -13s-3.5 -10.5 -3.5 -16.5z
" />
    <glyph glyph-name="plusminus" unicode="&#xb1;" horiz-adv-x="251" 
d="M12 441h74v75h76v-75h75v-74h-75v-76h-76v76h-74v74zM12 261h227v-74h-227v74z" />
    <glyph glyph-name="periodcentered" unicode="&#xb7;" horiz-adv-x="101" 
d="M51 367c-10 0 -18.667 3.66699 -26 11s-11 16 -11 26c0 10.667 3.83301 19.5 11.5 26.5s16.167 10.5 25.5 10.5c11.333 0 20.333 -3.66699 27 -11s10 -16 10 -26c0 -11.333 -3.33301 -20.333 -10 -27s-15.667 -10 -27 -10z" />
    <glyph glyph-name="guillemotright" unicode="&#xbb;" horiz-adv-x="293" 
d="M18 184v84l84 140l-84 143v82l150 -225zM138 184v84l84 140l-84 143v82l150 -225z" />
    <glyph glyph-name="onequarter" unicode="&#xbc;" horiz-adv-x="418" 
d="M304 801l-151 -801h-74l150 801h75zM100 321h-44v425h-46v25l55 30h35v-480zM343 0v100h-90v45l90 336h45v-336h19v-45h-19v-100h-45zM343 339l-46 -195h46v195z" />
    <glyph glyph-name="onehalf" unicode="&#xbd;" horiz-adv-x="427" 
d="M304 801l-151 -801h-74l150 801h75zM100 321h-44v425h-46v25l55 30h35v-480zM417 0l-135.003 -0.000976562v90c0 14.667 2 27.834 6 39.501s10.333 24.834 19 39.501l35 71c20 29.333 30 59.333 30 90v105h-45v-56h-45v56c0 12.667 4.33301 23.334 13 32.001
s19.334 13 32.001 13h45c12.667 0 23.334 -4.33301 32.001 -13s13 -19.334 13 -32.001v-135c0 -13.333 -4.33301 -28 -13 -44l-11 -21l-36 -70c-9.33301 -15.333 -16.666 -29.833 -21.999 -43.5s-8 -27.834 -8 -42.501v-35h90v-44z" />
    <glyph glyph-name="threequarters" unicode="&#xbe;" horiz-adv-x="477" 
d="M362 801l-151 -801h-74l150 801h75zM401 0v100h-90v45l90 336h45v-336h19v-45h-19v-100h-45zM401 340l-46 -195h46v195zM10 756c0 13.333 4.33496 24.333 13.002 33s19 13 31 13h46c11.333 0 21.666 -5 30.999 -15s14 -20.333 14 -31v-140
c0 -20.667 -8.33301 -33.667 -25 -39c8.66699 -3.33301 15 -7.33301 19 -12s6 -12.667 6 -24v-175c0 -12.667 -4.33301 -23.334 -13 -32.001s-19.334 -13 -32.001 -13h-46c-12 0 -22.333 4.33301 -31 13s-13 19.334 -13 32.001v70h44v-70h46v191h-65v44h65v155h-46v-55h-44
v55z" />
    <glyph glyph-name="afii10023" unicode="&#x401;" horiz-adv-x="223" 
d="M17 0v801h199v-76h-125v-284h110v-74h-110v-293h125v-74h-199zM17 926h74v-74h-74v74zM142 926h74v-74h-74v74z" />
    <glyph glyph-name="afii10051" unicode="&#x402;" horiz-adv-x="313" 
d="M5 801h249v-74h-103v-266h76c17.333 0 34 -8 50 -24s24 -32.667 24 -50v-377c0 -50 -4.66699 -84.667 -14 -104c-14.667 -30.667 -46 -46 -94 -46h-42v74h32c19.333 0 32 7.33301 38 22c2.66699 8 4.66699 22.667 6 44v387h-76v-387h-75v727h-71v74z" />
    <glyph glyph-name="afii10052" unicode="&#x403;" horiz-adv-x="226" 
d="M14 0v801h199v-76h-125v-725h-74zM179 930l45 -45l-105 -84l-22 22z" />
    <glyph glyph-name="afii10053" unicode="&#x404;" 
d="M243 633h-73.998v92h-76v-258h109v-74h-109v-319h76v117h74v-117c0 -20.667 -7.16699 -38.167 -21.5 -52.5s-31.833 -21.5 -52.5 -21.5h-76c-20.667 0 -38.334 7 -53.001 21s-22 31.667 -22 53v651c0 17.333 7.66699 34.333 23 51s32.666 25 51.999 25h76
c20 0 37.333 -7.33301 52 -22s22 -32.667 22 -54v-92z" />
    <glyph glyph-name="afii10054" unicode="&#x405;" horiz-adv-x="258" 
d="M49 508c-12 19.333 -20.501 39.001 -25.501 59.001s-7.5 42 -7.5 66v90c0 17.333 8 34.666 24 51.999s32.667 26 50 26h76c18 0 35 -8.33301 51 -25s24 -33.667 24 -51v-92h-75v92h-76v-92c0 -21.333 4 -42.333 12 -63c5.33301 -14 13 -29 23 -45l92 -136
c12.667 -20 20.334 -52 23.001 -96c0.666992 -11.333 1 -39.333 1 -84v-135c0 -17.333 -8 -34 -24 -50s-33 -24 -51 -24h-76c-17.333 0 -34 8 -50 24s-24 32.667 -24 50v110h74v-110h76v135c0 50.667 -1.16699 85.167 -3.5 103.5s-9.5 36.5 -21.5 54.5z" />
    <glyph glyph-name="afii10055" unicode="&#x406;" horiz-adv-x="112" 
d="M92 801v-801h-74v801h74z" />
    <glyph glyph-name="afii10056" unicode="&#x407;" horiz-adv-x="207" 
d="M138 801v-801h-74v801h74zM4 926h74v-74h-74v74zM129 926h74v-74h-74v74z" />
    <glyph glyph-name="afii10057" unicode="&#x408;" horiz-adv-x="171" 
d="M153 802v-652c0 -50 -4.66699 -84.667 -14 -104c-14.667 -30.667 -46 -46 -94 -46h-42v74h32c19.333 0 32 7.33301 38 22c3.33301 8.66699 5 26 5 52v654h75z" />
    <glyph glyph-name="afii10058" unicode="&#x409;" horiz-adv-x="444" 
d="M58 725c0 24 7 42.667 21 56s32 20 54 20h150v-340h75c50 0 75 -24.667 75 -74v-311c0 -17.333 -8 -34.333 -24 -51s-33 -25 -51 -25h-151v725h-74v-575c0 -50 -4.66699 -84.667 -14 -104c-14.667 -30.667 -46 -46 -94 -46h-12v74c20.667 0 34 7.33301 40 22
c3.33301 8.66699 5 26 5 52v577zM283 387v-311h75v311h-75z" />
    <glyph glyph-name="afii10059" unicode="&#x40a;" horiz-adv-x="404" 
d="M319 464c50 0 75 -24.667 75 -74v-314c0 -17.333 -8 -34.333 -24 -51s-33 -25 -51 -25h-151v389h-76v-389h-74v801h74v-338h76v338h75v-337h76zM243 76h76v314h-76v-314z" />
    <glyph glyph-name="afii10060" unicode="&#x40b;" horiz-adv-x="317" 
d="M9 801h249v-74h-103v-266h76c17.333 0 34 -8 50 -24s24 -32.667 24 -50v-387h-74v387h-76v-387h-75v727h-71v74z" />
    <glyph glyph-name="afii10061" unicode="&#x40c;" horiz-adv-x="254" 
d="M89 801l0.000976562 -360l76 360h75l-75 -360c21.333 0 39.166 -6.5 53.499 -19.5s21.5 -31.167 21.5 -54.5v-367h-75v367h-76v-367h-74v801h74zM180.001 930l45 -45l-105 -84l-22 22z" />
    <glyph glyph-name="afii10062" unicode="&#x40e;" horiz-adv-x="256" 
d="M240 801l0.000976562 -727c0 -21.333 -7.33301 -39 -22 -53s-32.334 -21 -53.001 -21h-76c-20.667 0 -38.167 7.16699 -52.5 21.5s-21.5 31.833 -21.5 52.5v117h74v-117h76v219h-76c-17.333 0 -34 8 -50 24s-24 32.667 -24 50v434h74v-434h76v434h75zM220.001 946v-24
c0 -17.333 -8 -33.5 -24 -48.5s-33 -22.5 -51 -22.5h-36c-17.333 0 -34 7.5 -50 22.5s-24 31.167 -24 48.5v24h64v-34h56v34h65z" />
    <glyph glyph-name="afii10145" unicode="&#x40f;" 
d="M92 0h-75v801h74v-727h76v727h75v-801h-76v-74h-74v74z" />
    <glyph glyph-name="afii10017" unicode="&#x410;" horiz-adv-x="261" 
d="M92 441h76v284h-76v-284zM168 801c18 0 35 -8.33301 51 -25s24 -33.667 24 -51v-725h-75v367h-76v-367h-74v725c0 17.333 8 34.333 24 51s32.667 25 50 25h76z" />
    <glyph glyph-name="afii10018" unicode="&#x411;" horiz-adv-x="255" 
d="M168 461c50 0 75 -24.667 75 -74v-311c0 -17.333 -8 -34.333 -24 -51s-33 -25 -51 -25h-150v801h199v-76h-125v-264h76zM92 76h76v311h-76v-311z" />
    <glyph glyph-name="afii10019" unicode="&#x412;" horiz-adv-x="261" 
d="M92 441h76v284h-76v-284zM18 801h150c18 0 35 -8.33301 51 -25s24 -33.667 24 -51v-284c0 -7.33301 -3.33301 -15 -10 -23s-14.667 -14 -24 -18c10.667 -4 19 -9.33301 25 -16s9 -15.667 9 -27v-283c0 -18 -7.5 -34.833 -22.5 -50.5s-31.833 -23.5 -50.5 -23.5h-152v801z
M92 74h76v293h-76v-293z" />
    <glyph glyph-name="afii10020" unicode="&#x413;" horiz-adv-x="218" 
d="M18 0v801h199v-76h-125v-725h-74z" />
    <glyph glyph-name="afii10021" unicode="&#x414;" horiz-adv-x="333" 
d="M13 74c19.333 0 32 7.33301 38 22c3.33301 8.66699 5 26 5 52v577c0 24 7 42.667 21 56s32 20 54 20h150v-727h37v-148h-74v74h-157v-74h-74v148zM131 150c0 -30.667 -1.66699 -56 -5 -76h79v651h-74v-575z" />
    <glyph glyph-name="afii10022" unicode="&#x415;" horiz-adv-x="225" 
d="M18 0v801h199v-76h-125v-284h110v-74h-110v-293h125v-74h-199z" />
    <glyph glyph-name="afii10024" unicode="&#x416;" horiz-adv-x="410" 
d="M242 801l0.00195312 -360l76 360h75l-75 -360c21.333 0 39.166 -6.5 53.499 -19.5s21.5 -31.167 21.5 -54.5v-367h-75v367h-76v-367h-74v367h-76v-367h-75v367c0 23.333 7.16699 41.5 21.5 54.5s32.166 19.5 53.499 19.5l-75 360h75l76 -360v360h74z" />
    <glyph glyph-name="afii10025" unicode="&#x417;" 
d="M17 725c0 21.333 7.33496 39.333 22.002 54s32 22 52 22h76c19.333 0 36.666 -8.33301 51.999 -25s23 -33.667 23 -51v-233c0 -35.333 -13.667 -57.333 -41 -66c14.667 -6 25.167 -12.667 31.5 -20s9.5 -20.333 9.5 -39v-293c0 -21.333 -7.33301 -39 -22 -53
s-32.334 -21 -53.001 -21h-76c-20.667 0 -38.167 7.16699 -52.5 21.5s-21.5 31.833 -21.5 52.5v117h74v-117h76v319h-79v74h79v258h-76v-92h-74v92z" />
    <glyph glyph-name="afii10026" unicode="&#x418;" horiz-adv-x="262" 
d="M92 801v-330l76 190v140h75v-801h-75v507l-76 -190v-317h-74v801h74z" />
    <glyph glyph-name="afii10027" unicode="&#x419;" horiz-adv-x="257" 
d="M221 946v-24c0 -17.333 -8 -33.5 -24 -48.5s-33 -22.5 -51 -22.5h-36c-17.333 0 -34 7.5 -50 22.5s-24 31.167 -24 48.5v24h64v-34h56v34h65zM16 801v-801h74v317l76 190v-507h75v801h-75v-140l-76 -190v330h-74z" />
    <glyph glyph-name="afii10028" unicode="&#x41a;" 
d="M92 801l0.000976562 -360l76 360h75l-75 -360c21.333 0 39.166 -6.5 53.499 -19.5s21.5 -31.167 21.5 -54.5v-367h-75v367h-76v-367h-74v801h74z" />
    <glyph glyph-name="afii10029" unicode="&#x41b;" horiz-adv-x="299" 
d="M56 725c0 24 7 42.667 21 56s32 20 54 20h150v-801h-76v725h-74v-575c0 -50 -4.66699 -84.667 -14 -104c-14.667 -30.667 -46 -46 -94 -46h-12v74c20.667 0 34 7.33301 40 22c3.33301 8.66699 5 26 5 52v577z" />
    <glyph glyph-name="afii10030" unicode="&#x41c;" horiz-adv-x="411" 
d="M393 801v-801h-74v539l-76 -539h-77l-74 534v-534h-74v801h111l76 -617l75 617h113z" />
    <glyph glyph-name="afii10031" unicode="&#x41d;" horiz-adv-x="262" 
d="M92 801v-360h76v360h75v-801h-75v367h-76v-367h-74v801h74z" />
    <glyph glyph-name="afii10032" unicode="&#x41e;" horiz-adv-x="261" 
d="M92 74h76v651h-76v-651zM168 801c18 0 35 -8.33301 51 -25s24 -33.667 24 -51v-651c0 -17.333 -8 -34 -24 -50s-33 -24 -51 -24h-76c-17.333 0 -34 8 -50 24s-24 32.667 -24 50v651c0 17.333 8 34.333 24 51s32.667 25 50 25h76z" />
    <glyph glyph-name="afii10033" unicode="&#x41f;" horiz-adv-x="262" 
d="M243 801v-801h-75v727h-76v-727h-74v801h225z" />
    <glyph glyph-name="afii10034" unicode="&#x420;" horiz-adv-x="248" 
d="M92 441h76v284h-76v-284zM92 367v-367h-74v801h150c18 0 35 -8.33301 51 -25s24 -33.667 24 -51v-284c0 -49.333 -25 -74 -75 -74h-76z" />
    <glyph glyph-name="afii10035" unicode="&#x421;" 
d="M168 633v92h-76v-651h76v110h75v-110c0 -17.333 -8 -34 -24 -50s-33 -24 -51 -24h-76c-17.333 0 -34 8 -50 24s-24 32.667 -24 50v651c0 17.333 8 34.333 24 51s32.667 25 50 25h76c18 0 35 -8.33301 51 -25s24 -33.667 24 -51v-92h-75z" />
    <glyph glyph-name="afii10036" unicode="&#x422;" horiz-adv-x="238" 
d="M231 801v-76h-75v-725h-76v725h-74v76h225z" />
    <glyph glyph-name="afii10037" unicode="&#x423;" horiz-adv-x="261" 
d="M243 801l0.000976562 -727c0 -21.333 -7.33301 -39 -22 -53s-32.334 -21 -53.001 -21h-76c-20.667 0 -38.167 7.16699 -52.5 21.5s-21.5 31.833 -21.5 52.5v117h74v-117h76v219h-76c-17.333 0 -34 8 -50 24s-24 32.667 -24 50v434h74v-434h76v434h75z" />
    <glyph glyph-name="afii10038" unicode="&#x424;" horiz-adv-x="410" 
d="M242 831v-46h76c18 0 35 -8.33301 51 -25s24 -33.667 24 -51v-621c0 -49.333 -25 -74 -75 -74h-76v-44h-74v44h-76c-50 0 -75 24.667 -75 74v621c0 17.333 8 34.333 24 51s33 25 51 25h76v46h74zM168 709h-76v-621h76v621zM242 88h76v621h-76v-621z" />
    <glyph glyph-name="afii10039" unicode="&#x425;" 
d="M130 508l37.002 293h75l-45 -360c21.333 0 34.166 -6.5 38.499 -19.5s6.5 -31.167 6.5 -54.5v-367h-75v367h-75v-367h-75v367c0 23.333 2.16699 41.5 6.5 54.5s17.166 19.5 38.499 19.5l-45 360h75z" />
    <glyph glyph-name="afii10040" unicode="&#x426;" horiz-adv-x="291" 
d="M203 0h-187v801h74v-725h76v725h75v-725h36v-150h-74v74z" />
    <glyph glyph-name="afii10041" unicode="&#x427;" horiz-adv-x="251" 
d="M232 801v-801h-75v293h-76c-17.333 0 -34 8 -50 24s-24 32.667 -24 50v434h74v-434h76v434h75z" />
    <glyph glyph-name="afii10042" unicode="&#x428;" horiz-adv-x="411" 
d="M18 801h74v-725h76v725h75v-725h76v725h74v-801h-375v801z" />
    <glyph glyph-name="afii10043" unicode="&#x429;" horiz-adv-x="443" 
d="M16 801h74v-725h76v725h75v-725h76v725h74v-725h36v-150h-74v74h-337v801z" />
    <glyph glyph-name="afii10044" unicode="&#x42a;" horiz-adv-x="289" 
d="M12 801h118v-339h76c50 0 75 -24.667 75 -74v-312c0 -17.333 -8 -34.333 -24 -51s-33 -25 -51 -25h-150v727h-44v74zM130 76h76v312h-76v-312z" />
    <glyph glyph-name="afii10045" unicode="&#x42b;" horiz-adv-x="370" 
d="M168 462c50 0 75 -24.667 75 -74v-312c0 -17.333 -8 -34.333 -24 -51s-33 -25 -51 -25h-150v801h74v-339h76zM92 76h76v312h-76v-312zM352 801v-801h-74v801h74z" />
    <glyph glyph-name="afii10046" unicode="&#x42c;" horiz-adv-x="249" 
d="M168 462c50 0 75 -24.667 75 -74v-312c0 -17.333 -8 -34.333 -24 -51s-33 -25 -51 -25h-150v801h74v-339h76zM92 76h76v312h-76v-312z" />
    <glyph glyph-name="afii10047" unicode="&#x42d;" 
d="M17 725c0 21.333 7.33496 39.333 22.002 54s32 22 52 22h76c19.333 0 36.666 -8.33301 51.999 -25s23 -33.667 23 -51v-651c0 -21.333 -7.33301 -39 -22 -53s-32.334 -21 -53.001 -21h-76c-20.667 0 -38.167 7.16699 -52.5 21.5s-21.5 31.833 -21.5 52.5v117h74v-117h76
v319h-89v74h89v258h-76v-92h-74v92z" />
    <glyph glyph-name="afii10048" unicode="&#x42e;" horiz-adv-x="390" 
d="M92 801v-334h55v258c0 17.333 8 34.333 24 51s32.667 25 50 25h76c18 0 35 -8.33301 51 -25s24 -33.667 24 -51v-651c0 -17.333 -8 -34 -24 -50s-33 -24 -51 -24h-76c-17.333 0 -34 8 -50 24s-24 32.667 -24 50v319h-55v-393h-74v801h74zM221 74h76v651h-76v-651z" />
    <glyph glyph-name="afii10049" unicode="&#x42f;" horiz-adv-x="262" 
d="M18 0v357c0 11.333 3 20.333 9 27s14.333 12 25 16c-9.33301 4 -17.333 10 -24 18s-10 15.667 -10 23v284c0 17.333 8 34.333 24 51s33 25 51 25h150v-801h-74v367h-76v-367h-75zM169 725h-76v-284h76v284z" />
    <glyph glyph-name="afii10065" unicode="&#x430;" horiz-adv-x="261" 
d="M92 441h76v284h-76v-284zM168 801c18 0 35 -8.33301 51 -25s24 -33.667 24 -51v-725h-75v367h-76v-367h-74v725c0 17.333 8 34.333 24 51s32.667 25 50 25h76z" />
    <glyph glyph-name="afii10066" unicode="&#x431;" horiz-adv-x="255" 
d="M168 461c50 0 75 -24.667 75 -74v-311c0 -17.333 -8 -34.333 -24 -51s-33 -25 -51 -25h-150v801h199v-76h-125v-264h76zM92 76h76v311h-76v-311z" />
    <glyph glyph-name="afii10067" unicode="&#x432;" horiz-adv-x="261" 
d="M92 441h76v284h-76v-284zM18 801h150c18 0 35 -8.33301 51 -25s24 -33.667 24 -51v-284c0 -7.33301 -3.33301 -15 -10 -23s-14.667 -14 -24 -18c10.667 -4 19 -9.33301 25 -16s9 -15.667 9 -27v-283c0 -18 -7.5 -34.833 -22.5 -50.5s-31.833 -23.5 -50.5 -23.5h-152v801z
M92 74h76v293h-76v-293z" />
    <glyph glyph-name="afii10068" unicode="&#x433;" horiz-adv-x="218" 
d="M18 0v801h199v-76h-125v-725h-74z" />
    <glyph glyph-name="afii10069" unicode="&#x434;" horiz-adv-x="333" 
d="M13 74c19.333 0 32 7.33301 38 22c3.33301 8.66699 5 26 5 52v577c0 24 7 42.667 21 56s32 20 54 20h150v-727h37v-148h-74v74h-157v-74h-74v148zM131 150c0 -30.667 -1.66699 -56 -5 -76h79v651h-74v-575z" />
    <glyph glyph-name="afii10070" unicode="&#x435;" horiz-adv-x="225" 
d="M18 0v801h199v-76h-125v-284h110v-74h-110v-293h125v-74h-199z" />
    <glyph glyph-name="afii10072" unicode="&#x436;" horiz-adv-x="410" 
d="M242 801l0.00195312 -360l76 360h75l-75 -360c21.333 0 39.166 -6.5 53.499 -19.5s21.5 -31.167 21.5 -54.5v-367h-75v367h-76v-367h-74v367h-76v-367h-75v367c0 23.333 7.16699 41.5 21.5 54.5s32.166 19.5 53.499 19.5l-75 360h75l76 -360v360h74z" />
    <glyph glyph-name="afii10073" unicode="&#x437;" 
d="M17 725c0 21.333 7.33496 39.333 22.002 54s32 22 52 22h76c19.333 0 36.666 -8.33301 51.999 -25s23 -33.667 23 -51v-233c0 -35.333 -13.667 -57.333 -41 -66c14.667 -6 25.167 -12.667 31.5 -20s9.5 -20.333 9.5 -39v-293c0 -21.333 -7.33301 -39 -22 -53
s-32.334 -21 -53.001 -21h-76c-20.667 0 -38.167 7.16699 -52.5 21.5s-21.5 31.833 -21.5 52.5v117h74v-117h76v319h-79v74h79v258h-76v-92h-74v92z" />
    <glyph glyph-name="afii10074" unicode="&#x438;" horiz-adv-x="262" 
d="M92 801v-330l76 190v140h75v-801h-75v507l-76 -190v-317h-74v801h74z" />
    <glyph glyph-name="afii10075" unicode="&#x439;" horiz-adv-x="257" 
d="M221 946v-24c0 -17.333 -8 -33.5 -24 -48.5s-33 -22.5 -51 -22.5h-36c-17.333 0 -34 7.5 -50 22.5s-24 31.167 -24 48.5v24h64v-34h56v34h65zM16 801v-801h74v317l76 190v-507h75v801h-75v-140l-76 -190v330h-74z" />
    <glyph glyph-name="afii10076" unicode="&#x43a;" 
d="M92 801l0.000976562 -360l76 360h75l-75 -360c21.333 0 39.166 -6.5 53.499 -19.5s21.5 -31.167 21.5 -54.5v-367h-75v367h-76v-367h-74v801h74z" />
    <glyph glyph-name="afii10077" unicode="&#x43b;" horiz-adv-x="299" 
d="M56 725c0 24 7 42.667 21 56s32 20 54 20h150v-801h-76v725h-74v-575c0 -50 -4.66699 -84.667 -14 -104c-14.667 -30.667 -46 -46 -94 -46h-12v74c20.667 0 34 7.33301 40 22c3.33301 8.66699 5 26 5 52v577z" />
    <glyph glyph-name="afii10078" unicode="&#x43c;" horiz-adv-x="411" 
d="M393 801v-801h-74v539l-76 -539h-77l-74 534v-534h-74v801h111l76 -617l75 617h113z" />
    <glyph glyph-name="afii10079" unicode="&#x43d;" horiz-adv-x="262" 
d="M92 801v-360h76v360h75v-801h-75v367h-76v-367h-74v801h74z" />
    <glyph glyph-name="afii10080" unicode="&#x43e;" horiz-adv-x="261" 
d="M92 74h76v651h-76v-651zM168 801c18 0 35 -8.33301 51 -25s24 -33.667 24 -51v-651c0 -17.333 -8 -34 -24 -50s-33 -24 -51 -24h-76c-17.333 0 -34 8 -50 24s-24 32.667 -24 50v651c0 17.333 8 34.333 24 51s32.667 25 50 25h76z" />
    <glyph glyph-name="afii10081" unicode="&#x43f;" horiz-adv-x="262" 
d="M243 801v-801h-75v727h-76v-727h-74v801h225z" />
    <glyph glyph-name="afii10082" unicode="&#x440;" horiz-adv-x="248" 
d="M92 441h76v284h-76v-284zM92 367v-367h-74v801h150c18 0 35 -8.33301 51 -25s24 -33.667 24 -51v-284c0 -49.333 -25 -74 -75 -74h-76z" />
    <glyph glyph-name="afii10083" unicode="&#x441;" 
d="M168 633v92h-76v-651h76v110h75v-110c0 -17.333 -8 -34 -24 -50s-33 -24 -51 -24h-76c-17.333 0 -34 8 -50 24s-24 32.667 -24 50v651c0 17.333 8 34.333 24 51s32.667 25 50 25h76c18 0 35 -8.33301 51 -25s24 -33.667 24 -51v-92h-75z" />
    <glyph glyph-name="afii10084" unicode="&#x442;" horiz-adv-x="238" 
d="M231 801v-76h-75v-725h-76v725h-74v76h225z" />
    <glyph glyph-name="afii10085" unicode="&#x443;" horiz-adv-x="261" 
d="M243 801l0.000976562 -727c0 -21.333 -7.33301 -39 -22 -53s-32.334 -21 -53.001 -21h-76c-20.667 0 -38.167 7.16699 -52.5 21.5s-21.5 31.833 -21.5 52.5v117h74v-117h76v219h-76c-17.333 0 -34 8 -50 24s-24 32.667 -24 50v434h74v-434h76v434h75z" />
    <glyph glyph-name="afii10086" unicode="&#x444;" horiz-adv-x="410" 
d="M242 831v-46h76c18 0 35 -8.33301 51 -25s24 -33.667 24 -51v-621c0 -49.333 -25 -74 -75 -74h-76v-44h-74v44h-76c-50 0 -75 24.667 -75 74v621c0 17.333 8 34.333 24 51s33 25 51 25h76v46h74zM168 709h-76v-621h76v621zM242 88h76v621h-76v-621z" />
    <glyph glyph-name="afii10087" unicode="&#x445;" 
d="M130 508l37.002 293h75l-45 -360c21.333 0 34.166 -6.5 38.499 -19.5s6.5 -31.167 6.5 -54.5v-367h-75v367h-75v-367h-75v367c0 23.333 2.16699 41.5 6.5 54.5s17.166 19.5 38.499 19.5l-45 360h75z" />
    <glyph glyph-name="afii10088" unicode="&#x446;" horiz-adv-x="291" 
d="M203 0h-187v801h74v-725h76v725h75v-725h36v-150h-74v74z" />
    <glyph glyph-name="afii10089" unicode="&#x447;" horiz-adv-x="251" 
d="M232 801v-801h-75v293h-76c-17.333 0 -34 8 -50 24s-24 32.667 -24 50v434h74v-434h76v434h75z" />
    <glyph glyph-name="afii10090" unicode="&#x448;" horiz-adv-x="411" 
d="M18 801h74v-725h76v725h75v-725h76v725h74v-801h-375v801z" />
    <glyph glyph-name="afii10091" unicode="&#x449;" horiz-adv-x="443" 
d="M16 801h74v-725h76v725h75v-725h76v725h74v-725h36v-150h-74v74h-337v801z" />
    <glyph glyph-name="afii10092" unicode="&#x44a;" horiz-adv-x="289" 
d="M12 801h118v-339h76c50 0 75 -24.667 75 -74v-312c0 -17.333 -8 -34.333 -24 -51s-33 -25 -51 -25h-150v727h-44v74zM130 76h76v312h-76v-312z" />
    <glyph glyph-name="afii10093" unicode="&#x44b;" horiz-adv-x="370" 
d="M168 462c50 0 75 -24.667 75 -74v-312c0 -17.333 -8 -34.333 -24 -51s-33 -25 -51 -25h-150v801h74v-339h76zM92 76h76v312h-76v-312zM352 801v-801h-74v801h74z" />
    <glyph glyph-name="afii10094" unicode="&#x44c;" horiz-adv-x="249" 
d="M168 462c50 0 75 -24.667 75 -74v-312c0 -17.333 -8 -34.333 -24 -51s-33 -25 -51 -25h-150v801h74v-339h76zM92 76h76v312h-76v-312z" />
    <glyph glyph-name="afii10095" unicode="&#x44d;" 
d="M17 725c0 21.333 7.33496 39.333 22.002 54s32 22 52 22h76c19.333 0 36.666 -8.33301 51.999 -25s23 -33.667 23 -51v-651c0 -21.333 -7.33301 -39 -22 -53s-32.334 -21 -53.001 -21h-76c-20.667 0 -38.167 7.16699 -52.5 21.5s-21.5 31.833 -21.5 52.5v117h74v-117h76
v319h-89v74h89v258h-76v-92h-74v92z" />
    <glyph glyph-name="afii10096" unicode="&#x44e;" horiz-adv-x="390" 
d="M92 801v-334h55v258c0 17.333 8 34.333 24 51s32.667 25 50 25h76c18 0 35 -8.33301 51 -25s24 -33.667 24 -51v-651c0 -17.333 -8 -34 -24 -50s-33 -24 -51 -24h-76c-17.333 0 -34 8 -50 24s-24 32.667 -24 50v319h-55v-393h-74v801h74zM221 74h76v651h-76v-651z" />
    <glyph glyph-name="afii10097" unicode="&#x44f;" horiz-adv-x="262" 
d="M18 0v357c0 11.333 3 20.333 9 27s14.333 12 25 16c-9.33301 4 -17.333 10 -24 18s-10 15.667 -10 23v284c0 17.333 8 34.333 24 51s33 25 51 25h150v-801h-74v367h-76v-367h-75zM169 725h-76v-284h76v284z" />
    <glyph glyph-name="afii10071" unicode="&#x451;" horiz-adv-x="223" 
d="M17 0v801h199v-76h-125v-284h110v-74h-110v-293h125v-74h-199zM17 926h74v-74h-74v74zM142 926h74v-74h-74v74z" />
    <glyph glyph-name="afii10099" unicode="&#x452;" horiz-adv-x="313" 
d="M5 727h71v74h75v-74h103v-74h-103v-245h76c17.333 0 34 -8 50 -24s24 -32.667 24 -50v-324c0 -50 -4.66699 -84.667 -14 -104c-14.667 -30.667 -46 -46 -94 -46h-42v74h32c19.333 0 32 7.33301 38 22c2.66699 8 4.66699 22.667 6 44v334h-76v-334h-75v653h-71v74z" />
    <glyph glyph-name="afii10100" unicode="&#x453;" horiz-adv-x="226" 
d="M14 0v801h199v-76h-125v-725h-74zM179 930l45 -45l-105 -84l-22 22z" />
    <glyph glyph-name="afii10101" unicode="&#x454;" 
d="M243 633h-73.998v92h-76v-258h109v-74h-109v-319h76v117h74v-117c0 -20.667 -7.16699 -38.167 -21.5 -52.5s-31.833 -21.5 -52.5 -21.5h-76c-20.667 0 -38.334 7 -53.001 21s-22 31.667 -22 53v651c0 17.333 7.66699 34.333 23 51s32.666 25 51.999 25h76
c20 0 37.333 -7.33301 52 -22s22 -32.667 22 -54v-92z" />
    <glyph glyph-name="afii10102" unicode="&#x455;" horiz-adv-x="258" 
d="M49 508c-12 19.333 -20.501 39.001 -25.501 59.001s-7.5 42 -7.5 66v90c0 17.333 8 34.666 24 51.999s32.667 26 50 26h76c18 0 35 -8.33301 51 -25s24 -33.667 24 -51v-92h-75v92h-76v-92c0 -21.333 4 -42.333 12 -63c5.33301 -14 13 -29 23 -45l92 -136
c12.667 -20 20.334 -52 23.001 -96c0.666992 -11.333 1 -39.333 1 -84v-135c0 -17.333 -8 -34 -24 -50s-33 -24 -51 -24h-76c-17.333 0 -34 8 -50 24s-24 32.667 -24 50v110h74v-110h76v135c0 50.667 -1.16699 85.167 -3.5 103.5s-9.5 36.5 -21.5 54.5z" />
    <glyph glyph-name="afii10103" unicode="&#x456;" horiz-adv-x="112" 
d="M92 801v-801h-74v801h74z" />
    <glyph glyph-name="afii10104" unicode="&#x457;" horiz-adv-x="207" 
d="M138 801v-801h-74v801h74zM4 926h74v-74h-74v74zM129 926h74v-74h-74v74z" />
    <glyph glyph-name="afii10105" unicode="&#x458;" horiz-adv-x="171" 
d="M153 802v-652c0 -50 -4.66699 -84.667 -14 -104c-14.667 -30.667 -46 -46 -94 -46h-42v74h32c19.333 0 32 7.33301 38 22c3.33301 8.66699 5 26 5 52v654h75z" />
    <glyph glyph-name="afii10106" unicode="&#x459;" horiz-adv-x="444" 
d="M58 725c0 24 7 42.667 21 56s32 20 54 20h150v-367h75c50 0 75 -24.667 75 -74v-284c0 -17.333 -8 -34.333 -24 -51s-33 -25 -51 -25h-151v725h-74v-575c0 -50 -4.66699 -84.667 -14 -104c-14.667 -30.667 -46 -46 -94 -46h-12v74c20.667 0 34 7.33301 40 22
c3.33301 8.66699 5 26 5 52v577zM283 360v-284h75v284h-75z" />
    <glyph glyph-name="afii10107" unicode="&#x45a;" horiz-adv-x="404" 
d="M319 434c50 0 75 -24.667 75 -74v-284c0 -17.333 -8 -34.333 -24 -51s-33 -25 -51 -25h-151v359h-76v-359h-74v801h74v-368h76v368h75v-367h76zM243 76h76v284h-76v-284z" />
    <glyph glyph-name="afii10108" unicode="&#x45b;" horiz-adv-x="316" 
d="M9 727h71v74h75v-74h103v-74h-103v-245h76c17.333 0 34 -8 50 -24s24 -32.667 24 -50v-334h-74v334h-76v-334h-75v653h-71v74z" />
    <glyph glyph-name="afii10109" unicode="&#x45c;" horiz-adv-x="254" 
d="M89 801l0.000976562 -360l76 360h75l-75 -360c21.333 0 39.166 -6.5 53.499 -19.5s21.5 -31.167 21.5 -54.5v-367h-75v367h-76v-367h-74v801h74zM180.001 930l45 -45l-105 -84l-22 22z" />
    <glyph glyph-name="afii10110" unicode="&#x45e;" horiz-adv-x="256" 
d="M240 801l0.000976562 -727c0 -21.333 -7.33301 -39 -22 -53s-32.334 -21 -53.001 -21h-76c-20.667 0 -38.167 7.16699 -52.5 21.5s-21.5 31.833 -21.5 52.5v117h74v-117h76v219h-76c-17.333 0 -34 8 -50 24s-24 32.667 -24 50v434h74v-434h76v434h75zM220.001 946v-24
c0 -17.333 -8 -33.5 -24 -48.5s-33 -22.5 -51 -22.5h-36c-17.333 0 -34 7.5 -50 22.5s-24 31.167 -24 48.5v24h64v-34h56v34h65z" />
    <glyph glyph-name="afii10193" unicode="&#x45f;" 
d="M92 0h-75v801h74v-727h76v727h75v-801h-76v-74h-74v74z" />
    <glyph glyph-name="afii10050" unicode="&#x490;" horiz-adv-x="219" 
d="M141 875h74v-150h-125v-725h-74v801h125v74z" />
    <glyph glyph-name="afii10098" unicode="&#x491;" horiz-adv-x="219" 
d="M141 875h74v-150h-125v-725h-74v801h125v74z" />
    <glyph glyph-name="endash" unicode="&#x2013;" horiz-adv-x="236" 
d="M18 441h199v-74h-199v74z" />
    <glyph glyph-name="emdash" unicode="&#x2014;" horiz-adv-x="434" 
d="M18 441h398v-74h-398v74z" />
    <glyph glyph-name="quoteleft" unicode="&#x2018;" horiz-adv-x="99" 
d="M30 801h41l15 -184h-74z" />
    <glyph glyph-name="quoteright" unicode="&#x2019;" horiz-adv-x="98" 
d="M12 801h74l-15 -184h-41z" />
    <glyph glyph-name="quotesinglbase" unicode="&#x201a;" horiz-adv-x="98" 
d="M12 183h74l-15 -184h-41z" />
    <glyph glyph-name="quotedblleft" unicode="&#x201c;" horiz-adv-x="244" 
d="M17 801h74l-15 -184h-41zM124 801h77l-18 -184h-41z" />
    <glyph glyph-name="quotedblright" unicode="&#x201d;" horiz-adv-x="244" 
d="M17 801h74l-15 -184h-41zM124 801h77l-18 -184h-41z" />
    <glyph glyph-name="quotedblbase" unicode="&#x201e;" horiz-adv-x="214" 
d="M15 185h74l-15 -184h-41zM122 185h77l-18 -184h-41z" />
    <glyph glyph-name="dagger" unicode="&#x2020;" horiz-adv-x="294" 
d="M2 657h111v144h74v-144h104v-74h-104v-583h-74v583h-111v74z" />
    <glyph glyph-name="daggerdbl" unicode="&#x2021;" horiz-adv-x="296" 
d="M3 657h111v144h74v-144h104v-74h-104v-365h104v-74h-104v-144h-74v144h-111v74h111v365h-111v74z" />
    <glyph glyph-name="bullet" unicode="&#x2022;" horiz-adv-x="238" 
d="M13 412c0 14.667 2.83301 28.5 8.5 41.5s13.167 24.333 22.5 34s20.5 17.334 33.5 23.001s26.833 8.5 41.5 8.5s28.5 -2.83301 41.5 -8.5s24.333 -13.334 34 -23.001s17.334 -21 23.001 -34s8.5 -26.833 8.5 -41.5s-2.83301 -28.5 -8.5 -41.5
s-13.334 -24.167 -23.001 -33.5s-21 -16.833 -34 -22.5s-26.833 -8.5 -41.5 -8.5c-30 0 -55.167 10.167 -75.5 30.5s-30.5 45.5 -30.5 75.5z" />
    <glyph glyph-name="ellipsis" unicode="&#x2026;" horiz-adv-x="408" 
d="M18 74h74v-74h-74v74zM167 74h74v-74h-74v74zM316 74h74v-74h-74v74z" />
    <glyph glyph-name="perthousand" unicode="&#x2030;" horiz-adv-x="626" 
d="M338 801l-151 -801h-74l150 801h75zM342 45h47v390h-47v-390zM389 480c10.667 0 20.5 -4.99902 29.5 -14.999s13.5 -20 13.5 -30v-390c0 -10.667 -4.5 -20.834 -13.5 -30.501s-18.833 -14.5 -29.5 -14.5h-47c-10 0 -19.833 5 -29.5 15s-14.5 20 -14.5 30v390
c0 10 4.83301 20 14.5 30s19.5 15 29.5 15h47zM527 45.001h47v390h-47v-390zM574 480.001c10.667 0 20.5 -4.99902 29.5 -14.999s13.5 -20 13.5 -30v-390c0 -10.667 -4.5 -20.834 -13.5 -30.501s-18.833 -14.5 -29.5 -14.5h-47c-10 0 -19.833 5 -29.5 15s-14.5 20 -14.5 30
v390c0 10 4.83301 20 14.5 30s19.5 15 29.5 15h47zM58 366.002h47v390h-47v-390zM105 801.002c10.667 0 20.5 -4.99902 29.5 -14.999s13.5 -20 13.5 -30v-390c0 -10.667 -4.5 -20.834 -13.5 -30.501s-18.833 -14.5 -29.5 -14.5h-47c-10 0 -19.833 5 -29.5 15
s-14.5 20 -14.5 30v390c0 10 4.83301 20 14.5 30s19.5 15 29.5 15h47z" />
    <glyph glyph-name="guilsinglleft" unicode="&#x2039;" horiz-adv-x="163" 
d="M150 633v-82l-84 -143l84 -140v-84l-150 224z" />
    <glyph glyph-name="guilsinglright" unicode="&#x203a;" horiz-adv-x="168" 
d="M18 184v84l84 140l-84 143v82l150 -225z" />
    <glyph glyph-name="Euro" unicode="&#x20ac;" horiz-adv-x="319" 
d="M7 541h70v184c0 17.333 8 34.333 24 51s32.667 25 50 25h76c18 0 35 -8.33301 51 -25s24 -33.667 24 -51v-92h-75v92h-76v-184h125v-74h-125v-126h125v-74h-125v-193h76v110h75v-110c0 -17.333 -8 -34 -24 -50s-33 -24 -51 -24h-76c-17.333 0 -34 8 -50 24
s-24 32.667 -24 50v193h-70v74h70v126h-70v74z" />
    <glyph glyph-name="afii61352" unicode="&#x2116;" horiz-adv-x="529" 
d="M243 0h-74v367l-76 190v-557h-75v801h75v-70l76 -190v260h148v-74h-74v-727zM453 623c16.667 0 32 -7.16699 46 -21.5s21 -30.166 21 -47.499v-272c0 -17.333 -7 -33 -21 -47s-29.333 -21 -46 -21h-66c-16 0 -31 7 -45 21s-21 29.667 -21 47v272
c0 17.333 7 33.166 21 47.499s29 21.5 45 21.5h66zM387 282h66v272h-66v-272zM321 147h199v-74h-199v74z" />
    <glyph glyph-name="trademark" unicode="&#x2122;" horiz-adv-x="380" 
d="M130 801v-39h-39v-374h-39v374h-38v39h116zM362 801v-413h-38v278l-39 -278h-40l-38 275v-275h-38v413h57l39 -318l39 318h58z" />
    <glyph glyph-name=".null" horiz-adv-x="0" 
 />
    <glyph glyph-name="nonmarkingreturn" horiz-adv-x="209" 
 />
    </font>
</defs>
</svg>
